<svg viewBox="0 0 600 130" xmlns="http://www.w3.org/2000/svg" role="img" aria-label="Arschloch Ablauf in vier Schritten: 1. Verteilen (alle Karten); 2. Überbieten (oder passen); 3. Zuerst leer (= König); 4. Letzter (Arschloch trinkt)."><title>Arschloch Ablauf in 4 Schritten</title><desc>Arschloch Schritt für Schritt: 1. Verteilen (alle Karten); 2. Überbieten (oder passen); 3. Zuerst leer (= König); 4. Letzter (Arschloch trinkt).</desc><rect x="8" y="20" width="128" height="92" rx="12" fill="#fff" stroke="#0E0E10" stroke-width="1.6"/><circle cx="34" cy="50" r="15" fill="#E1342B"/><text x="34" y="50" text-anchor="middle" dominant-baseline="central" font-family="sans-serif" font-size="16" font-weight="700" fill="#fff">1</text><text x="56" y="44" dominant-baseline="central" font-family="sans-serif" font-size="11.5" font-weight="700" fill="#0E0E10">Verteilen</text><text x="56" y="64" dominant-baseline="central" font-family="sans-serif" font-size="10" fill="#4A4A4F">alle Karten</text><rect x="156" y="20" width="128" height="92" rx="12" fill="#fff" stroke="#0E0E10" stroke-width="1.6"/><circle cx="182" cy="50" r="15" fill="#E1342B"/><text x="182" y="50" text-anchor="middle" dominant-baseline="central" font-family="sans-serif" font-size="16" font-weight="700" fill="#fff">2</text><text x="204" y="44" dominant-baseline="central" font-family="sans-serif" font-size="11.5" font-weight="700" fill="#0E0E10">Überbieten</text><text x="204" y="64" dominant-baseline="central" font-family="sans-serif" font-size="10" fill="#4A4A4F">oder passen</text><rect x="304" y="20" width="128" height="92" rx="12" fill="#fff" stroke="#0E0E10" stroke-width="1.6"/><circle cx="330" cy="50" r="15" fill="#E1342B"/><text x="330" y="50" text-anchor="middle" dominant-baseline="central" font-family="sans-serif" font-size="16" font-weight="700" fill="#fff">3</text><text x="352" y="44" dominant-baseline="central" font-family="sans-serif" font-size="11.5" font-weight="700" fill="#0E0E10">Zuerst leer</text><text x="352" y="64" dominant-baseline="central" font-family="sans-serif" font-size="10" fill="#4A4A4F">= König</text><rect x="452" y="20" width="128" height="92" rx="12" fill="#fff" stroke="#0E0E10" stroke-width="1.6"/><circle cx="478" cy="50" r="15" fill="#E1342B"/><text x="478" y="50" text-anchor="middle" dominant-baseline="central" font-family="sans-serif" font-size="16" font-weight="700" fill="#fff">4</text><text x="500" y="44" dominant-baseline="central" font-family="sans-serif" font-size="13" font-weight="700" fill="#0E0E10">Letzter</text><text x="500" y="60" dominant-baseline="central" font-family="sans-serif" font-size="10" fill="#4A4A4F">Arschloch</text><text x="500" y="74" dominant-baseline="central" font-family="sans-serif" font-size="10" fill="#4A4A4F">trinkt</text><polyline points="140,66 150,66" fill="none" stroke="#E1342B" stroke-width="2.5"/><polyline points="146,61 152,66 146,71" fill="none" stroke="#E1342B" stroke-width="2.5"/><polyline points="288,66 298,66" fill="none" stroke="#E1342B" stroke-width="2.5"/><polyline points="294,61 300,66 294,71" fill="none" stroke="#E1342B" stroke-width="2.5"/><polyline points="436,66 446,66" fill="none" stroke="#E1342B" stroke-width="2.5"/><polyline points="442,61 448,66 442,71" fill="none" stroke="#E1342B" stroke-width="2.5"/></svg>