<svg xmlns="http://www.w3.org/2000/svg" viewBox="0 0 600 150" width="600" height="150" role="img"><rect width="600" height="150" fill="#FBF7EC"/><rect x="88" y="32" width="44" height="80" rx="4" fill="#C9C9CE" stroke="#0E0E10" stroke-width="3"/><ellipse cx="110" cy="32" rx="22" ry="6" fill="#fff" stroke="#0E0E10" stroke-width="3"/><rect x="88" y="46" width="44" height="32" fill="#C62828" opacity=".55"/><rect x="468" y="32" width="44" height="80" rx="4" fill="#C9C9CE" stroke="#0E0E10" stroke-width="3"/><ellipse cx="490" cy="32" rx="22" ry="6" fill="#fff" stroke="#0E0E10" stroke-width="3"/><rect x="468" y="46" width="44" height="32" fill="#C62828" opacity=".55"/><line x1="60" y1="120" x2="540" y2="120" stroke="#A8A8AE" stroke-width="3"/><path d="M150 70 Q300 30 430 64" fill="none" stroke="#C62828" stroke-width="2.5" stroke-dasharray="7 6"/><g transform="translate(300,52)"><line x1="-26" y1="0" x2="22" y2="0" stroke="#0E0E10" stroke-width="4"/><polygon points="22,0 10,-7 10,7" fill="#0E0E10"/><polygon points="-26,0 -38,-9 -34,0 -38,9" fill="#C62828"/></g><text x="110" y="140" font-family="DejaVu Sans, Arial, sans-serif" font-size="13" font-weight="700" fill="#6E6E73" text-anchor="middle">Spieler A</text><text x="490" y="140" font-family="DejaVu Sans, Arial, sans-serif" font-size="13" font-weight="700" fill="#6E6E73" text-anchor="middle">Spieler B</text></svg>