<svg viewBox="0 0 600 130" xmlns="http://www.w3.org/2000/svg" role="img" aria-label="UNO Trinkspiel Ablauf in vier Schritten: 1. Spielen (normal UNO); 2. Aktionskarte (= Trinkregel); 3. „UNO!“ (vergessen? trinken); 4. Leer? (gewonnen)."><title>UNO Trinkspiel Ablauf in 4 Schritten</title><desc>UNO Trinkspiel Schritt für Schritt: 1. Spielen (normal UNO); 2. Aktionskarte (= Trinkregel); 3. „UNO!“ (vergessen? trinken); 4. Leer? (gewonnen).</desc><rect x="8" y="20" width="128" height="92" rx="12" fill="#fff" stroke="#0E0E10" stroke-width="1.6"/><circle cx="34" cy="50" r="15" fill="#E1342B"/><text x="34" y="50" text-anchor="middle" dominant-baseline="central" font-family="sans-serif" font-size="16" font-weight="700" fill="#fff">1</text><text x="56" y="44" dominant-baseline="central" font-family="sans-serif" font-size="13" font-weight="700" fill="#0E0E10">Spielen</text><text x="56" y="64" dominant-baseline="central" font-family="sans-serif" font-size="10" fill="#4A4A4F">normal UNO</text><rect x="156" y="20" width="128" height="92" rx="12" fill="#fff" stroke="#0E0E10" stroke-width="1.6"/><circle cx="182" cy="50" r="15" fill="#E1342B"/><text x="182" y="50" text-anchor="middle" dominant-baseline="central" font-family="sans-serif" font-size="16" font-weight="700" fill="#fff">2</text><text x="204" y="44" dominant-baseline="central" font-family="sans-serif" font-size="10.5" font-weight="700" fill="#0E0E10">Aktionskarte</text><text x="204" y="64" dominant-baseline="central" font-family="sans-serif" font-size="10" fill="#4A4A4F">= Trinkregel</text><rect x="304" y="20" width="128" height="92" rx="12" fill="#fff" stroke="#0E0E10" stroke-width="1.6"/><circle cx="330" cy="50" r="15" fill="#E1342B"/><text x="330" y="50" text-anchor="middle" dominant-baseline="central" font-family="sans-serif" font-size="16" font-weight="700" fill="#fff">3</text><text x="352" y="44" dominant-baseline="central" font-family="sans-serif" font-size="13" font-weight="700" fill="#0E0E10">„UNO!“</text><text x="352" y="60" dominant-baseline="central" font-family="sans-serif" font-size="10" fill="#4A4A4F">vergessen?</text><text x="352" y="74" dominant-baseline="central" font-family="sans-serif" font-size="10" fill="#4A4A4F">trinken</text><rect x="452" y="20" width="128" height="92" rx="12" fill="#fff" stroke="#0E0E10" stroke-width="1.6"/><circle cx="478" cy="50" r="15" fill="#E1342B"/><text x="478" y="50" text-anchor="middle" dominant-baseline="central" font-family="sans-serif" font-size="16" font-weight="700" fill="#fff">4</text><text x="500" y="44" dominant-baseline="central" font-family="sans-serif" font-size="13" font-weight="700" fill="#0E0E10">Leer?</text><text x="500" y="64" dominant-baseline="central" font-family="sans-serif" font-size="10" fill="#4A4A4F">gewonnen</text><polyline points="140,66 150,66" fill="none" stroke="#E1342B" stroke-width="2.5"/><polyline points="146,61 152,66 146,71" fill="none" stroke="#E1342B" stroke-width="2.5"/><polyline points="288,66 298,66" fill="none" stroke="#E1342B" stroke-width="2.5"/><polyline points="294,61 300,66 294,71" fill="none" stroke="#E1342B" stroke-width="2.5"/><polyline points="436,66 446,66" fill="none" stroke="#E1342B" stroke-width="2.5"/><polyline points="442,61 448,66 442,71" fill="none" stroke="#E1342B" stroke-width="2.5"/></svg>