<svg xmlns="http://www.w3.org/2000/svg" viewBox="0 0 560 280" width="560" height="280" role="img"><rect width="560" height="280" rx="16" fill="#FBF7EC"/><rect x="1.5" y="1.5" width="557" height="277" rx="15" fill="none" stroke="#E7DCC3" stroke-width="2"/><g transform="translate(230,130)"><rect x="-8" y="-78" width="16" height="14" rx="3" fill="#F2B829" stroke="#0E0E10" stroke-width="2"/><path d="M-8 -64 h16" stroke="#0E0E10" stroke-width="2"/><circle cx="0" cy="0" r="62" fill="#C62828" stroke="#0E0E10" stroke-width="3"/><path d="M-62 -4 q62 -40 124 0" fill="none" stroke="#F2B829" stroke-width="6"/><circle cx="0" cy="0" r="62" fill="none" stroke="#fff" stroke-width="1.5" opacity=".4"/></g><g transform="translate(330,120)"><path d="M0 0 h54 l-6 60 h-42 Z" fill="#7A1620" opacity=".85" stroke="#0E0E10" stroke-width="2"/><rect x="22" y="60" width="8" height="34" fill="#0E0E10"/><rect x="8" y="94" width="38" height="8" rx="3" fill="#0E0E10"/><path d="M14 -6 q4 -14 12 -6 M30 -8 q4 -12 12 -4" stroke="#A8A8AE" stroke-width="2" fill="none"/></g><text x="280" y="250" font-family='Arial, Helvetica, sans-serif' font-size="18" font-weight="700" fill="#C62828" text-anchor="middle">Weihnachtsfeier-Trinkspiele</text></svg>